<?xml version="1.0" encoding="UTF-8"?>
<svg version="1.1" xmlns="http://www.w3.org/2000/svg" width="1024" height="1024">
<path d="M0 0 C337.92 0 675.84 0 1024 0 C1024 337.92 1024 675.84 1024 1024 C686.08 1024 348.16 1024 0 1024 C0 686.08 0 348.16 0 0 Z " fill="#0567D0" transform="translate(0,0)"/>

<path d="M0 0 C35.58468415 -0.06881015 71.16935654 -0.12160167 106.75409363 -0.15319599 C110.96431774 -0.15694768 115.17454171 -0.16083069 119.38476562 -0.16479492 C120.22287278 -0.16558185 121.06097994 -0.16636878 121.92448428 -0.16717956 C135.45836638 -0.18019951 148.99220987 -0.20383435 162.52606913 -0.23145839 C176.43435593 -0.25960789 190.34262264 -0.27619634 204.25093675 -0.28226548 C212.81886709 -0.28636223 221.38668828 -0.29925589 229.95458499 -0.3237494 C235.84635305 -0.33972473 241.73806548 -0.34437398 247.62985358 -0.34050413 C251.01869372 -0.3386007 254.40719324 -0.34300907 257.79602432 -0.35761642 C272.81429312 -0.41912915 287.23715879 0.12391545 302 3 C302.75685262 3.14601359 303.51370524 3.29202718 304.29349279 3.44246542 C346.27681521 11.62320351 384.09995209 35.13225438 408.140625 70.56640625 C431.88912512 106.68987781 441.03809342 153.21063642 432.50488281 195.63818359 C425.58415252 228.01301188 411.26700107 254.55449729 388 278 C387.10667969 278.90621094 386.21335937 279.81242187 385.29296875 280.74609375 C372.31410874 293.20659683 345.17237176 314 326 314 C329.8864352 319.99868522 333.99868699 325.71284534 338.4375 331.3125 C343.54403566 337.81321831 348.55936789 344.37235419 353.5 351 C358.96730742 358.3283371 364.52703167 365.57588705 370.15673828 372.7800293 C373.98422066 377.68157784 377.74619783 382.62551282 381.4609375 387.61328125 C384.93849924 392.26900938 388.47467015 396.88042133 392 401.5 C396.18549577 406.98610868 400.3699066 412.47202884 404.5 418 C408.56782354 423.44450569 412.68950372 428.84718889 416.8125 434.25 C421.56718118 440.48118106 426.30742656 446.72190062 431 453 C435.73840832 459.33729299 440.51761457 465.6428344 445.3125 471.9375 C446.29959961 473.23397461 446.29959961 473.23397461 447.30664062 474.55664062 C451.07629967 479.50026831 454.87971391 484.41326634 458.73901367 489.28735352 C460 491 460 491 460 492 C449.41048844 492.07014396 438.82103399 492.123133 428.23133564 492.15543652 C423.31177253 492.17095654 418.39237071 492.19193813 413.47290039 492.22631836 C408.70715485 492.25940802 403.94156241 492.27695506 399.17571068 492.28463173 C397.37604557 492.29008781 395.57638686 492.3007353 393.77678871 492.31719017 C362.13863868 492.59442784 332.09490692 486.45110336 308.53125 463.7421875 C304.85742563 460.00123845 301.86509489 455.91987215 298.875 451.625 C294.46867354 445.40566384 289.97418583 439.28041261 285.3125 433.25 C281.04951822 427.72169203 276.89904042 422.1374829 272.86938477 416.43725586 C267.62621691 409.03077179 262.20873735 401.75227333 256.81445312 394.45556641 C253.87205315 390.47350788 250.9362956 386.48656062 248 382.5 C246.83336666 380.91664211 245.66669996 379.3333088 244.5 377.75 C237.5 368.25 237.5 368.25 235.74755859 365.87158203 C234.58916338 364.2995436 233.43063626 362.72760235 232.27197266 361.15576172 C229.22762437 357.02543289 226.18606703 352.89308572 223.1484375 348.7578125 C222.51679688 347.89865234 221.88515625 347.03949219 221.234375 346.15429688 C220.02779583 344.51299432 218.8220185 342.87110189 217.6171875 341.22851562 C216.08587982 339.1464428 214.54520968 337.07176546 213 335 C211.93652344 333.56527344 211.93652344 333.56527344 210.8515625 332.1015625 C208.98072549 329.97812302 207.549502 328.92516108 205 327.75 C204.34 327.43546875 203.68 327.1209375 203 326.796875 C198.73085019 325.09588562 194.99522473 324.87782852 190.39550781 324.88647461 C189.74143448 324.88632858 189.08736115 324.88618256 188.41346741 324.8860321 C186.25998574 324.88672659 184.10659148 324.89449717 181.953125 324.90234375 C180.45668586 324.90420958 178.96024612 324.90563271 177.46380615 324.90663147 C173.53141585 324.91044365 169.59906268 324.92026283 165.66668701 324.93133545 C161.65149437 324.94157751 157.6362957 324.94613508 153.62109375 324.95117188 C145.74737883 324.96188628 137.87369404 324.97894709 130 325 C129.99853344 325.54977351 129.99706688 326.09954702 129.99555588 326.66598034 C129.95836072 340.09812077 129.89893106 353.53000836 129.81609726 366.96194744 C129.7766981 373.45779575 129.74447241 379.95351002 129.72900391 386.44946289 C129.71378774 392.72607209 129.67925372 399.00231262 129.63169098 405.2787571 C129.61692834 407.66552324 129.60896195 410.05234203 129.60811615 412.43915367 C129.59112527 436.35880277 129.59112527 436.35880277 125 447 C124.505 448.2065625 124.01 449.413125 123.5 450.65625 C114.72026949 467.30115577 100.83115933 479.68916759 83 486 C69.82234631 489.89655805 56.9584507 490.52253335 43.3125 490.25 C41.52020279 490.22985635 39.7278831 490.21161981 37.93554688 490.1953125 C33.62312301 490.15204905 29.31182495 490.08348161 25 490 C24.90645034 462.58318635 24.83596865 435.16639671 24.79275131 407.74945545 C24.77214906 395.0185442 24.74407306 382.28773226 24.69824219 369.55688477 C24.65830298 358.45730146 24.63255021 347.3577901 24.62364602 336.25813693 C24.61844331 330.38400943 24.60626359 324.51008775 24.57707977 318.63602638 C24.54979883 313.09977672 24.5415806 307.56381638 24.54756927 302.02750587 C24.5464747 300.00274073 24.53859686 297.97796525 24.5231781 295.95325851 C24.37736709 275.80693977 28.42506669 260.26224108 42.765625 245.17578125 C53.61295694 234.61290732 67.88425812 227.65649515 83.14343262 227.74171448 C83.92302102 227.73803877 84.70260942 227.73436307 85.5058217 227.73057598 C88.09704825 227.72066061 90.68805745 227.72473392 93.27929688 227.72875977 C95.14612047 227.72436877 97.0129421 227.71906526 98.87976074 227.71292114 C102.89132382 227.70144561 106.90283424 227.69596349 110.91441345 227.69503975 C117.27083088 227.69309243 123.62714026 227.67500093 129.98352051 227.65428162 C145.77690662 227.60517542 161.57032212 227.57427163 177.36376953 227.55297852 C189.6311044 227.53641139 201.89834647 227.51346346 214.16561937 227.46995777 C220.47018597 227.44830457 226.77457573 227.4401121 233.0791769 227.44235051 C237.0220183 227.44067055 240.96474664 227.42654105 244.907547 227.40913773 C246.71978932 227.40359078 248.53205561 227.40300374 250.34429932 227.40807533 C264.25649601 227.44289094 278.9633217 227.17200908 291.4375 220.25 C292.42931274 219.7250293 292.42931274 219.7250293 293.44116211 219.18945312 C298.73411459 216.31455788 303.58488007 213.12139054 308 209 C308.60972656 208.43152344 309.21945312 207.86304688 309.84765625 207.27734375 C320.4024945 196.35134636 325.60005547 180.81492851 325.5 165.875 C325.49427979 164.87307617 325.48855957 163.87115234 325.48266602 162.83886719 C325.07118245 145.53161908 318.25011763 131.89310359 306.44140625 119.28515625 C291.48072791 105.28196133 273.26174036 102.69794724 253.65576172 102.71289062 C252.03329122 102.70685482 250.41082384 102.69992767 248.7883606 102.69218445 C245.31540902 102.67738124 241.84251408 102.66856801 238.36953354 102.66447449 C232.8717153 102.65771906 227.37401759 102.63591774 221.87625122 102.61193848 C209.21779195 102.55898699 196.55929562 102.52546289 183.90077209 102.49217987 C172.28677253 102.46144838 160.67282515 102.42655959 149.05889332 102.37586927 C143.59957313 102.35260291 138.14033765 102.3388007 132.68097281 102.33237457 C129.28040785 102.32641576 125.87991131 102.31230265 122.47938156 102.29603004 C120.90930576 102.29017937 119.33921314 102.28767654 117.76912689 102.28886986 C101.73154229 102.2975805 89.66834974 100.02160487 77.703125 88.71484375 C69.79161128 80.76903156 62.32721615 72.54289143 55.31640625 63.7890625 C51.64420613 59.36756016 47.70481871 55.20134497 43.78515625 51 C41.02653661 48.04123978 38.35388674 45.01604915 35.70703125 41.95703125 C33.66366569 39.6144085 31.58319141 37.30726578 29.5 35 C26.81016569 32.01937279 24.13689636 29.02754767 21.5 26 C18.90098248 23.01771722 16.27185338 20.06493057 13.625 17.125 C12.87605469 16.29226563 12.12710937 15.45953125 11.35546875 14.6015625 C9.72119246 12.79654093 8.07725256 11.00024026 6.42578125 9.2109375 C5.60464844 8.31632812 4.78351563 7.42171875 3.9375 6.5 C3.18339844 5.6853125 2.42929687 4.870625 1.65234375 4.03125 C0 2 0 2 0 0 Z " fill="#ffffff" transform="translate(273,264)"/>
<path d="M0 0 C0 3 0 3 -1.8125 5.1875 C-4 7 -4 7 -7 7 C-7.33 5.68 -7.66 4.36 -8 3 C-5.36 2.01 -2.72 1.02 0 0 Z " fill="#0B5ECD" transform="translate(607,575)"/>
<path d="M0 0 C1.65 1.65 3.3 3.3 5 5 C4.67 5.66 4.34 6.32 4 7 C1.525 6.01 1.525 6.01 -1 5 C-0.67 3.35 -0.34 1.7 0 0 Z " fill="#0B57CB" transform="translate(547,682)"/>
</svg>
